<svg width="37" height="36" viewBox="0 0 37 36" fill="none" xmlns="http://www.w3.org/2000/svg">
<g clip-path="url(#clip0_19_589)">
<path d="M23.454 9.75C24.778 9.75 26.022 10.266 26.958 11.201C27.8862 12.1309 28.4075 13.3911 28.4075 14.705C28.4075 16.0189 27.8862 17.2791 26.958 18.209L18.66 26.508L10.361 18.209C9.4331 17.2791 8.91199 16.0191 8.91199 14.7055C8.91199 13.3919 9.4331 12.1319 10.361 11.202C10.82 10.7403 11.3661 10.3742 11.9675 10.125C12.569 9.87576 13.2139 9.7483 13.865 9.75C15.189 9.75 16.433 10.266 17.369 11.201L18.129 11.961L18.66 12.492L19.19 11.961L19.95 11.201C20.4092 10.7396 20.9553 10.3738 21.5568 10.1248C22.1582 9.87572 22.803 9.74834 23.454 9.75Z" stroke="#111111" stroke-width="1.5"/>
</g>
<defs>
<clipPath id="clip0_19_589">
<rect x="0.660034" width="36" height="36" rx="18" fill="white"/>
</clipPath>
</defs>
</svg>
