<svg width="37" height="36" viewBox="0 0 37 36" fill="none" xmlns="http://www.w3.org/2000/svg">
<g clip-path="url(#clip0_19_599)">
<rect x="0.660034" width="36" height="36" rx="18" fill="#F5F5F5"/>
<path d="M20.622 22.296C19.576 22.9224 18.3792 23.2521 17.16 23.25C16.2734 23.2512 15.3953 23.0772 14.5762 22.7379C13.7571 22.3986 13.0131 21.9008 12.387 21.273C11.7593 20.6469 11.2614 19.9029 10.9222 19.0838C10.5829 18.2647 10.4088 17.3866 10.41 16.5C10.41 14.636 11.165 12.949 12.387 11.727C13.0131 11.0992 13.7571 10.6014 14.5762 10.2621C15.3953 9.92284 16.2734 9.7488 17.16 9.75001C19.024 9.75001 20.711 10.505 21.933 11.727C22.5608 12.3531 23.0586 13.0971 23.3979 13.9162C23.7372 14.7353 23.9112 15.6134 23.91 16.5C23.9118 17.6974 23.5938 18.8736 22.989 19.907C22.472 20.789 22.555 21.895 23.278 22.618L27.131 26.471" stroke="#111111" stroke-width="1.5"/>
</g>
<defs>
<clipPath id="clip0_19_599">
<rect x="0.660034" width="36" height="36" rx="18" fill="white"/>
</clipPath>
</defs>
</svg>
