<svg width="37" height="36" viewBox="0 0 37 36" fill="none" xmlns="http://www.w3.org/2000/svg">
<g clip-path="url(#clip0_19_593)">
<path d="M14.91 14.25V12C14.91 11.4033 15.1471 10.831 15.569 10.409C15.991 9.98705 16.5633 9.75 17.16 9.75H20.16C20.7568 9.75 21.3291 9.98705 21.751 10.409C22.173 10.831 22.41 11.4033 22.41 12C22.41 12.5967 22.173 13.169 21.751 13.591C21.3291 14.0129 20.7568 14.25 20.16 14.25H10.41V22.5C10.41 23.4946 10.8051 24.4484 11.5084 25.1517C12.2116 25.8549 13.1655 26.25 14.16 26.25H23.16C24.1546 26.25 25.1084 25.8549 25.8117 25.1517C26.5149 24.4484 26.91 23.4946 26.91 22.5V14.25H24.16" stroke="#111111" stroke-width="1.5"/>
</g>
<defs>
<clipPath id="clip0_19_593">
<rect x="0.660034" width="36" height="36" rx="18" fill="white"/>
</clipPath>
</defs>
</svg>
